<svg xmlns="http://www.w3.org/2000/svg" viewBox="0 0 1200 400" width="1200" height="400">
  <rect width="1200" height="400" fill="#0a0a0f"/>
  <defs>
    <linearGradient id="g" x1="0" y1="0" x2="1" y2="1">
      <stop offset="0%" stop-color="#f0453e" stop-opacity="0.15"/>
      <stop offset="100%" stop-color="#f0453e" stop-opacity="0.05"/>
    </linearGradient>
  </defs>
  <rect width="1200" height="400" fill="url(#g)"/>
  <!-- Grid lines -->
  <g stroke="#ffffff" stroke-opacity="0.03" stroke-width="0.5">
    <line x1="100" y1="0" x2="100" y2="400"/>
    <line x1="200" y1="0" x2="200" y2="400"/>
    <line x1="300" y1="0" x2="300" y2="400"/>
    <line x1="400" y1="0" x2="400" y2="400"/>
    <line x1="500" y1="0" x2="500" y2="400"/>
    <line x1="600" y1="0" x2="600" y2="400"/>
    <line x1="700" y1="0" x2="700" y2="400"/>
    <line x1="800" y1="0" x2="800" y2="400"/>
    <line x1="900" y1="0" x2="900" y2="400"/>
    <line x1="1000" y1="0" x2="1000" y2="400"/>
    <line x1="1100" y1="0" x2="1100" y2="400"/>
    <line x1="0" y1="50" x2="1200" y2="50"/>
    <line x1="0" y1="100" x2="1200" y2="100"/>
    <line x1="0" y1="150" x2="1200" y2="150"/>
    <line x1="0" y1="200" x2="1200" y2="200"/>
    <line x1="0" y1="250" x2="1200" y2="250"/>
    <line x1="0" y1="300" x2="1200" y2="300"/>
    <line x1="0" y1="350" x2="1200" y2="350"/>
  </g>
  <!-- Notch logo -->
  <g transform="translate(600,160)">
    <path d="M15.827 2.761A10 10 0 1 1 8.173 2.761L10.852 9.228A3 3 0 1 0 13.148 9.228Z" fill="#f0453e" transform="scale(3)"/>
  </g>
  <text x="600" y="260" text-anchor="middle" font-family="system-ui,-apple-system,sans-serif" font-size="48" font-weight="700" fill="#ffffff">AI Copilot OS</text>
  <text x="600" y="290" text-anchor="middle" font-family="system-ui,-apple-system,sans-serif" font-size="16" fill="#888888">A unified AI copilot agent for coding, design, reasoning &amp; automation</text>
</svg>
